<svg width="24" height="24" viewBox="0 0 24 24" fill="none" xmlns="http://www.w3.org/2000/svg">
<path d="M15.0094 3.75C13.4755 3.74998 11.9719 4.17709 10.6671 4.98349C9.36232 5.78988 8.30785 6.94369 7.62187 8.31562C7.04924 9.44939 6.75061 10.7017 6.75 11.9719C6.75327 12.165 6.68372 12.3523 6.55517 12.4965C6.42662 12.6407 6.2485 12.7312 6.05625 12.75C5.95313 12.7578 5.84952 12.7441 5.75193 12.7099C5.65435 12.6757 5.56488 12.6217 5.48917 12.5513C5.41345 12.4808 5.35312 12.3955 5.31196 12.3006C5.2708 12.2058 5.24971 12.1034 5.25 12C5.25038 10.952 5.41812 9.91074 5.74687 8.91562C5.76881 8.85217 5.77332 8.78399 5.75991 8.7182C5.74651 8.65242 5.71568 8.59144 5.67067 8.54163C5.62565 8.49182 5.56808 8.45501 5.50398 8.43504C5.43988 8.41508 5.37159 8.41269 5.30625 8.42813C4.00581 8.75051 2.8507 9.49889 2.02497 10.554C1.19924 11.6091 0.75041 12.9102 0.75 14.25C0.75 17.55 3.54375 20.25 6.83437 20.25H15C17.188 20.2512 19.2869 19.3832 20.835 17.8369C22.3831 16.2907 23.2534 14.1927 23.2547 12.0047C23.2559 9.81665 22.3879 7.71774 20.8416 6.16968C19.2953 4.62163 17.1974 3.75124 15.0094 3.75ZM18.5344 11.4094L14.0344 15.9094C13.891 16.048 13.6994 16.1255 13.5 16.1255C13.3006 16.1255 13.109 16.048 12.9656 15.9094L10.7156 13.6594C10.596 13.5137 10.5349 13.3287 10.5442 13.1404C10.5534 12.9521 10.6324 12.774 10.7657 12.6407C10.899 12.5074 11.0771 12.4284 11.2654 12.4192C11.4537 12.4099 11.6387 12.471 11.7844 12.5906L13.5 14.3156L17.4656 10.3406C17.6113 10.221 17.7963 10.1599 17.9846 10.1692C18.1729 10.1784 18.351 10.2574 18.4843 10.3907C18.6176 10.524 18.6966 10.7021 18.7058 10.8904C18.7151 11.0787 18.654 11.2637 18.5344 11.4094Z" fill="white"/>
</svg>
