<svg width="21" height="20" viewBox="0 0 21 20" fill="none" xmlns="http://www.w3.org/2000/svg">
<path d="M6.75 10C6.75 8.76387 7.11656 7.5555 7.80331 6.52769C8.49007 5.49988 9.46619 4.6988 10.6082 4.22576C11.7503 3.75271 13.0069 3.62894 14.2193 3.87009C15.4317 4.11125 16.5453 4.70651 17.4194 5.58059C18.2935 6.45466 18.8888 7.56831 19.1299 8.78069C19.3711 9.99307 19.2473 11.2497 18.7742 12.3918C18.3012 13.5338 17.5001 14.5099 16.4723 15.1967C15.4445 15.8834 14.2361 16.25 13 16.25H6.125C4.96468 16.25 3.85188 15.7891 3.03141 14.9686C2.21094 14.1481 1.75 13.0353 1.75 11.875C1.75 10.7147 2.21094 9.60188 3.03141 8.78141C3.85188 7.96094 4.96468 7.5 6.125 7.5C6.49104 7.49987 6.85572 7.54447 7.21094 7.63281" stroke="#05987B" stroke-width="2" stroke-linecap="round" stroke-linejoin="round"/>
<path d="M15.5 9.0625L11.75 12.8125L9.875 10.9375" stroke="#05987B" stroke-width="2" stroke-linecap="round" stroke-linejoin="round"/>
</svg>
