<svg width="24" height="18" viewBox="0 0 24 18" fill="none" xmlns="http://www.w3.org/2000/svg">
<path d="M15.0094 0.75C13.4755 0.749979 11.9719 1.17709 10.6671 1.98349C9.36232 2.78988 8.30785 3.94369 7.62187 5.31562C7.04924 6.44939 6.75061 7.7017 6.75 8.97187C6.75327 9.16502 6.68372 9.35231 6.55517 9.49649C6.42662 9.64068 6.2485 9.73118 6.05625 9.75C5.95313 9.75776 5.84952 9.7441 5.75193 9.7099C5.65435 9.6757 5.56488 9.62169 5.48917 9.55125C5.41345 9.48082 5.35312 9.39549 5.31196 9.30063C5.2708 9.20576 5.24971 9.10341 5.25 9C5.25038 7.95198 5.41812 6.91074 5.74687 5.91562C5.76881 5.85217 5.77332 5.78399 5.75991 5.7182C5.74651 5.65242 5.71568 5.59144 5.67067 5.54163C5.62565 5.49182 5.56808 5.45501 5.50398 5.43504C5.43988 5.41508 5.37159 5.41269 5.30625 5.42813C4.00581 5.75051 2.8507 6.49889 2.02497 7.55398C1.19924 8.60908 0.75041 9.9102 0.75 11.25C0.75 14.55 3.54375 17.25 6.83437 17.25H15C17.188 17.2512 19.2869 16.3832 20.835 14.8369C22.3831 13.2907 23.2534 11.1927 23.2547 9.00469C23.2559 6.81665 22.3879 4.71774 20.8416 3.16968C19.2953 1.62163 17.1974 0.751243 15.0094 0.75Z" fill="#D0D5DD"/>
</svg>
