<svg width="45" height="44" viewBox="0 0 45 44" fill="none" xmlns="http://www.w3.org/2000/svg">
<g filter="url(#filter0_d_709_52525)">
<rect x="2.5" y="1" width="40" height="40" rx="8" fill="white"/>
<path d="M19.5 29.2499H15C14.8011 29.2499 14.6103 29.1709 14.4697 29.0302C14.329 28.8896 14.25 28.6988 14.25 28.4999V24.3093C14.2497 24.2119 14.2685 24.1154 14.3055 24.0253C14.3425 23.9352 14.3969 23.8533 14.4656 23.7843L25.7156 12.5343C25.7854 12.4634 25.8686 12.4072 25.9603 12.3687C26.0521 12.3303 26.1505 12.3105 26.25 12.3105C26.3495 12.3105 26.4479 12.3303 26.5397 12.3687C26.6314 12.4072 26.7146 12.4634 26.7844 12.5343L30.9656 16.7155C31.0365 16.7853 31.0928 16.8685 31.1312 16.9603C31.1696 17.052 31.1894 17.1505 31.1894 17.2499C31.1894 17.3494 31.1696 17.4478 31.1312 17.5396C31.0928 17.6313 31.0365 17.7145 30.9656 17.7843L19.5 29.2499Z" stroke="#344054" stroke-width="2" stroke-linecap="round" stroke-linejoin="round"/>
<path d="M30.75 29.25H19.5" stroke="#1A1A1A" stroke-width="2" stroke-linecap="round" stroke-linejoin="round"/>
<path d="M23.25 15L28.5 20.25" stroke="#1A1A1A" stroke-width="2" stroke-linecap="round" stroke-linejoin="round"/>
<rect x="3" y="1.5" width="39" height="39" rx="7.5" stroke="#D0D5DD"/>
</g>
<defs>
<filter id="filter0_d_709_52525" x="0.5" y="0" width="44" height="44" filterUnits="userSpaceOnUse" color-interpolation-filters="sRGB">
<feFlood flood-opacity="0" result="BackgroundImageFix"/>
<feColorMatrix in="SourceAlpha" type="matrix" values="0 0 0 0 0 0 0 0 0 0 0 0 0 0 0 0 0 0 127 0" result="hardAlpha"/>
<feOffset dy="1"/>
<feGaussianBlur stdDeviation="1"/>
<feColorMatrix type="matrix" values="0 0 0 0 0.0627451 0 0 0 0 0.0941176 0 0 0 0 0.156863 0 0 0 0.05 0"/>
<feBlend mode="normal" in2="BackgroundImageFix" result="effect1_dropShadow_709_52525"/>
<feBlend mode="normal" in="SourceGraphic" in2="effect1_dropShadow_709_52525" result="shape"/>
</filter>
</defs>
</svg>
