<svg width="24" height="24" viewBox="0 0 24 24" fill="none" xmlns="http://www.w3.org/2000/svg">
<path d="M15 6V20.25" stroke="#039855" stroke-width="2" stroke-linecap="round" stroke-linejoin="round"/>
<path d="M18.7499 4.05929V19.4999C18.7499 19.6988 18.6709 19.8896 18.5303 20.0303C18.3896 20.1709 18.1988 20.2499 17.9999 20.2499H2.55929C2.41058 20.2497 2.26529 20.2052 2.1419 20.1222C2.0185 20.0392 1.92258 19.9214 1.86631 19.7837C1.81004 19.646 1.79596 19.4948 1.82587 19.3491C1.85579 19.2034 1.92833 19.0699 2.03429 18.9655L17.4655 3.53429C17.5699 3.42833 17.7034 3.35579 17.8491 3.32587C17.9948 3.29596 18.146 3.31004 18.2837 3.36631C18.4214 3.42258 18.5392 3.5185 18.6222 3.6419C18.7052 3.76529 18.7497 3.91058 18.7499 4.05929Z" stroke="#039855" stroke-width="2" stroke-linecap="round" stroke-linejoin="round"/>
<path d="M11.25 9.75V20.25" stroke="#039855" stroke-width="2" stroke-linecap="round" stroke-linejoin="round"/>
<path d="M7.5 13.5V20.25" stroke="#039855" stroke-width="2" stroke-linecap="round" stroke-linejoin="round"/>
</svg>
