<svg width="16" height="14" viewBox="0 0 20 18" fill="none" xmlns="http://www.w3.org/2000/svg">
<path d="M19.75 14.625C19.75 15.2603 19.5707 15.8828 19.2326 16.4207C18.8946 16.9586 18.4116 17.3902 17.8391 17.6659C17.2667 17.9415 16.6281 18.0499 15.9967 17.9787C15.3654 17.9075 14.767 17.6595 14.2703 17.2633C13.7737 16.8671 13.3989 16.3388 13.1892 15.7391C12.9795 15.1393 12.9433 14.4926 13.0848 13.8732C13.2263 13.2538 13.5398 12.687 13.9892 12.2378C14.4385 11.7887 15.0056 11.4755 15.625 11.3344V8.24061C15.6254 7.74801 15.5287 7.26016 15.3405 6.80493C15.1523 6.34969 14.8763 5.936 14.5281 5.58749L12.25 3.30936V5.24999C12.25 5.4489 12.171 5.63966 12.0303 5.78032C11.8897 5.92097 11.6989 5.99999 11.5 5.99999C11.3011 5.99999 11.1103 5.92097 10.9697 5.78032C10.829 5.63966 10.75 5.4489 10.75 5.24999V1.49999C10.75 1.30107 10.829 1.11031 10.9697 0.969657C11.1103 0.829005 11.3011 0.749987 11.5 0.749987H15.25C15.4489 0.749987 15.6397 0.829005 15.7803 0.969657C15.921 1.11031 16 1.30107 16 1.49999C16 1.6989 15.921 1.88966 15.7803 2.03032C15.6397 2.17097 15.4489 2.24999 15.25 2.24999H13.3094L15.5875 4.52811C16.0771 5.0141 16.4652 5.5926 16.7291 6.22995C16.9931 6.8673 17.1276 7.55077 17.125 8.24061V11.3344C17.8698 11.5059 18.5347 11.9244 19.0113 12.5219C19.488 13.1194 19.7483 13.8607 19.75 14.625ZM8.50001 12C8.3011 12 8.11033 12.079 7.96968 12.2197C7.82903 12.3603 7.75001 12.5511 7.75001 12.75V14.6906L5.47188 12.4125C5.12375 12.064 4.8477 11.6503 4.6595 11.195C4.47129 10.7398 4.37462 10.252 4.37501 9.75936V6.66561C5.18402 6.48122 5.89676 6.00526 6.37708 5.32865C6.85739 4.65204 7.07162 3.82219 6.97884 2.99763C6.88607 2.17307 6.49278 1.41159 5.87412 0.85863C5.25546 0.305673 4.45477 0 3.62501 0C2.79524 0 1.99456 0.305673 1.3759 0.85863C0.757231 1.41159 0.363949 2.17307 0.271171 2.99763C0.178394 3.82219 0.392623 4.65204 0.872939 5.32865C1.35325 6.00526 2.06599 6.48122 2.87501 6.66561V9.75936C2.87238 10.4492 3.00696 11.1327 3.27091 11.77C3.53486 12.4074 3.92292 12.9859 4.41251 13.4719L6.69063 15.75H4.75001C4.5511 15.75 4.36033 15.829 4.21968 15.9697C4.07903 16.1103 4.00001 16.3011 4.00001 16.5C4.00001 16.6989 4.07903 16.8897 4.21968 17.0303C4.36033 17.171 4.5511 17.25 4.75001 17.25H8.50001C8.69892 17.25 8.88968 17.171 9.03034 17.0303C9.17099 16.8897 9.25001 16.6989 9.25001 16.5V12.75C9.25001 12.5511 9.17099 12.3603 9.03034 12.2197C8.88968 12.079 8.69892 12 8.50001 12Z" fill="#37B99F"/>
</svg>
