<svg width="20" height="20" viewBox="0 0 20 20" fill="none" xmlns="http://www.w3.org/2000/svg">
<path d="M15.3125 16.875C16.5206 16.875 17.5 15.8956 17.5 14.6875C17.5 13.4794 16.5206 12.5 15.3125 12.5C14.1044 12.5 13.125 13.4794 13.125 14.6875C13.125 15.8956 14.1044 16.875 15.3125 16.875Z" stroke="#667085" stroke-width="2" stroke-linecap="round" stroke-linejoin="round"/>
<path d="M15.3125 12.5V9.36719C15.3112 8.37091 14.9151 7.41577 14.2109 6.71094L11.25 3.75" stroke="#667085" stroke-width="2" stroke-linecap="round" stroke-linejoin="round"/>
<path d="M11.25 6.875V3.75H14.375" stroke="#667085" stroke-width="2" stroke-linecap="round" stroke-linejoin="round"/>
<path d="M4.6875 7.5C5.89562 7.5 6.875 6.52062 6.875 5.3125C6.875 4.10438 5.89562 3.125 4.6875 3.125C3.47938 3.125 2.5 4.10438 2.5 5.3125C2.5 6.52062 3.47938 7.5 4.6875 7.5Z" stroke="#667085" stroke-width="2" stroke-linecap="round" stroke-linejoin="round"/>
<path d="M4.6875 7.5V10.6328C4.68885 11.6291 5.08495 12.5842 5.78906 13.2891L8.75 16.25" stroke="#667085" stroke-width="2" stroke-linecap="round" stroke-linejoin="round"/>
<path d="M8.75 13.125V16.25H5.625" stroke="#667085" stroke-width="2" stroke-linecap="round" stroke-linejoin="round"/>
</svg>
