<svg width="20" height="20" viewBox="0 0 25 24" fill="none" xmlns="http://www.w3.org/2000/svg">
<path d="M21.333 6.37499C21.333 5.73965 21.1537 5.11722 20.8156 4.57927C20.4776 4.04133 19.9946 3.60973 19.4221 3.33412C18.8497 3.0585 18.2111 2.95006 17.5797 3.02127C16.9484 3.09248 16.35 3.34044 15.8533 3.73665C15.3567 4.13285 14.9819 4.6612 14.7722 5.26093C14.5625 5.86065 14.5263 6.50739 14.6678 7.12677C14.8093 7.74615 15.1228 8.313 15.5722 8.76213C16.0215 9.21126 16.5886 9.52443 17.208 9.66561V9.74999C17.208 10.1478 17.05 10.5293 16.7687 10.8106C16.4874 11.092 16.1058 11.25 15.708 11.25H8.95802C8.56019 11.25 8.17866 11.092 7.89736 10.8106C7.61605 10.5293 7.45802 10.1478 7.45802 9.74999V9.66561C8.26703 9.48122 8.97977 9.00526 9.46008 8.32865C9.9404 7.65204 10.1546 6.8222 10.0619 5.99764C9.96907 5.17308 9.57579 4.41159 8.95713 3.85863C8.33846 3.30567 7.53778 3 6.70802 3C5.87825 3 5.07757 3.30567 4.4589 3.85863C3.84024 4.41159 3.44696 5.17308 3.35418 5.99764C3.2614 6.8222 3.47563 7.65204 3.95595 8.32865C4.43626 9.00526 5.149 9.48122 5.95802 9.66561V9.74999C5.96049 10.5449 6.27735 11.3065 6.83943 11.8686C7.4015 12.4307 8.16313 12.7475 8.95802 12.75H11.583V14.3344C10.774 14.5188 10.0613 14.9947 9.58095 15.6713C9.10063 16.3479 8.8864 17.1778 8.97918 18.0023C9.07196 18.8269 9.46524 19.5884 10.0839 20.1413C10.7026 20.6943 11.5033 21 12.333 21C13.1628 21 13.9635 20.6943 14.5821 20.1413C15.2008 19.5884 15.5941 18.8269 15.6869 18.0023C15.7796 17.1778 15.5654 16.3479 15.0851 15.6713C14.6048 14.9947 13.892 14.5188 13.083 14.3344V12.75H15.708C16.5029 12.7475 17.2645 12.4307 17.8266 11.8686C18.3887 11.3065 18.7055 10.5449 18.708 9.74999V9.66561C19.4529 9.49412 20.1177 9.07555 20.5943 8.47805C21.071 7.88055 21.3313 7.13931 21.333 6.37499ZM14.208 17.625C14.208 17.9958 14.098 18.3583 13.892 18.6667C13.686 18.975 13.3932 19.2153 13.0505 19.3573C12.7079 19.4992 12.3309 19.5363 11.9672 19.464C11.6035 19.3916 11.2694 19.213 11.0072 18.9508C10.745 18.6886 10.5664 18.3545 10.494 17.9908C10.4217 17.6271 10.4588 17.2501 10.6007 16.9075C10.7427 16.5648 10.983 16.272 11.2913 16.066C11.5997 15.86 11.9622 15.75 12.333 15.75C12.8295 15.7525 13.305 15.9508 13.6561 16.3019C14.0072 16.653 14.2056 17.1285 14.208 17.625Z" fill="#37B99F"/>
</svg>
