<svg width="33" height="32" viewBox="0 0 33 32" fill="none" xmlns="http://www.w3.org/2000/svg">
<path d="M16.5 19C18.1569 19 19.5 17.6569 19.5 16C19.5 14.3431 18.1569 13 16.5 13C14.8431 13 13.5 14.3431 13.5 16C13.5 17.6569 14.8431 19 16.5 19Z" stroke="#344054" stroke-width="2" stroke-linecap="round" stroke-linejoin="round"/>
<path d="M12.5 10C14.1569 10 15.5 8.65685 15.5 7C15.5 5.34315 14.1569 4 12.5 4C10.8431 4 9.5 5.34315 9.5 7C9.5 8.65685 10.8431 10 12.5 10Z" stroke="#344054" stroke-width="2" stroke-linecap="round" stroke-linejoin="round"/>
<path d="M25.5 16C27.1569 16 28.5 14.6569 28.5 13C28.5 11.3431 27.1569 10 25.5 10C23.8431 10 22.5 11.3431 22.5 13C22.5 14.6569 23.8431 16 25.5 16Z" stroke="#344054" stroke-width="2" stroke-linecap="round" stroke-linejoin="round"/>
<path d="M25.5 26C27.1569 26 28.5 24.6569 28.5 23C28.5 21.3431 27.1569 20 25.5 20C23.8431 20 22.5 21.3431 22.5 23C22.5 24.6569 23.8431 26 25.5 26Z" stroke="#344054" stroke-width="2" stroke-linecap="round" stroke-linejoin="round"/>
<path d="M7.5 27C9.15685 27 10.5 25.6569 10.5 24C10.5 22.3431 9.15685 21 7.5 21C5.84315 21 4.5 22.3431 4.5 24C4.5 25.6569 5.84315 27 7.5 27Z" stroke="#344054" stroke-width="2" stroke-linecap="round" stroke-linejoin="round"/>
<path d="M15.2879 13.2623L13.7129 9.7373" stroke="#344054" stroke-width="2" stroke-linecap="round" stroke-linejoin="round"/>
<path d="M22.6496 13.9502L19.3496 15.0502" stroke="#344054" stroke-width="2" stroke-linecap="round" stroke-linejoin="round"/>
<path d="M23.1373 21.1624L18.8623 17.8374" stroke="#344054" stroke-width="2" stroke-linecap="round" stroke-linejoin="round"/>
<path d="M14.2623 17.9873L9.7373 22.0123" stroke="#344054" stroke-width="2" stroke-linecap="round" stroke-linejoin="round"/>
</svg>
