<svg width="24" height="24" viewBox="0 0 24 24" fill="none" xmlns="http://www.w3.org/2000/svg">
<path d="M20.25 4.5H3.75C3.33579 4.5 3 4.83579 3 5.25V18.75C3 19.1642 3.33579 19.5 3.75 19.5H20.25C20.6642 19.5 21 19.1642 21 18.75V5.25C21 4.83579 20.6642 4.5 20.25 4.5Z" stroke="#98A2B3" stroke-width="2" stroke-linecap="round" stroke-linejoin="round"/>
<path d="M3 15.7499L7.71563 11.0343C7.78541 10.9634 7.8686 10.9072 7.96034 10.8687C8.05208 10.8303 8.15054 10.8105 8.25 10.8105C8.34946 10.8105 8.44792 10.8303 8.53966 10.8687C8.6314 10.9072 8.71459 10.9634 8.78437 11.0343L12.9656 15.2155C13.0354 15.2864 13.1186 15.3427 13.2103 15.3811C13.3021 15.4195 13.4005 15.4393 13.5 15.4393C13.5995 15.4393 13.6979 15.4195 13.7897 15.3811C13.8814 15.3427 13.9646 15.2864 14.0344 15.2155L15.9656 13.2843C16.0354 13.2134 16.1186 13.1572 16.2103 13.1187C16.3021 13.0803 16.4005 13.0605 16.5 13.0605C16.5995 13.0605 16.6979 13.0803 16.7897 13.1187C16.8814 13.1572 16.9646 13.2134 17.0344 13.2843L21 17.2499" stroke="#98A2B3" stroke-width="2" stroke-linecap="round" stroke-linejoin="round"/>
<path d="M15.6875 9.375C15.6875 9.9618 15.2118 10.4375 14.625 10.4375C14.0382 10.4375 13.5625 9.9618 13.5625 9.375C13.5625 8.7882 14.0382 8.3125 14.625 8.3125C15.2118 8.3125 15.6875 8.7882 15.6875 9.375Z" fill="#98A2B3" stroke="#98A2B3" stroke-width="0.125"/>
</svg>
