<svg width="24" height="24" viewBox="0 0 24 24" fill="none" xmlns="http://www.w3.org/2000/svg">
<path d="M10.7652 19.4557L10.6584 19.5624H10.8094H20.25C20.4323 19.5624 20.6072 19.6348 20.7361 19.7638C20.8651 19.8927 20.9375 20.0676 20.9375 20.2499C20.9375 20.4322 20.8651 20.6071 20.7361 20.736C20.6072 20.865 20.4323 20.9374 20.25 20.9374H4.5C4.11875 20.9374 3.75312 20.786 3.48353 20.5164C3.21395 20.2468 3.0625 19.8812 3.0625 19.4999L3.0625 15.3093L3.0625 15.3092C3.06233 15.1205 3.09955 14.9337 3.17201 14.7595C3.24447 14.5853 3.35073 14.4272 3.48465 14.2943L3.48482 14.2941L14.7345 3.04442C14.7346 3.04436 14.7346 3.0443 14.7347 3.04424C15.0054 2.77762 15.3701 2.62817 15.75 2.62817C16.1299 2.62817 16.4946 2.77762 16.7653 3.04424C16.7654 3.0443 16.7654 3.04436 16.7655 3.04442L20.9558 7.23472L20.956 7.23495C21.0902 7.36774 21.1967 7.52582 21.2694 7.70003C21.342 7.87425 21.3795 8.06114 21.3795 8.2499C21.3795 8.43867 21.342 8.62556 21.2694 8.79977C21.1967 8.97399 21.0902 9.13206 20.956 9.26486L20.9557 9.26517L18.4902 11.7401L18.4901 11.7402L10.7652 19.4557ZM4.45581 15.2651L4.4375 15.2834V15.3093V19.4999V19.5624H4.5H8.69063H8.71651L8.73482 19.5441L17.7348 10.5441L17.779 10.4999L17.7348 10.4557L13.5442 6.26508L13.5 6.22089L13.4558 6.26508L4.45581 15.2651Z" fill="white" stroke="white" stroke-width="0.125"/>
</svg>
