<svg width="21" height="20" viewBox="0 0 21 20" fill="none" xmlns="http://www.w3.org/2000/svg">
<path d="M6.125 7.8125H3C2.65482 7.8125 2.375 8.09232 2.375 8.4375V11.5625C2.375 11.9077 2.65482 12.1875 3 12.1875H6.125C6.47018 12.1875 6.75 11.9077 6.75 11.5625V8.4375C6.75 8.09232 6.47018 7.8125 6.125 7.8125Z" fill="#667085" stroke="#667085" stroke-width="2" stroke-linecap="round" stroke-linejoin="round"/>
<path d="M17.375 3.125H13.625C13.2798 3.125 13 3.40482 13 3.75V7.5C13 7.84518 13.2798 8.125 13.625 8.125H17.375C17.7202 8.125 18 7.84518 18 7.5V3.75C18 3.40482 17.7202 3.125 17.375 3.125Z" stroke="#667085" stroke-width="2" stroke-linecap="round" stroke-linejoin="round"/>
<path d="M17.375 11.875H13.625C13.2798 11.875 13 12.1548 13 12.5V16.25C13 16.5952 13.2798 16.875 13.625 16.875H17.375C17.7202 16.875 18 16.5952 18 16.25V12.5C18 12.1548 17.7202 11.875 17.375 11.875Z" stroke="#667085" stroke-width="2" stroke-linecap="round" stroke-linejoin="round"/>
<path d="M6.75 10H9.875" stroke="#667085" stroke-width="2" stroke-linecap="round" stroke-linejoin="round"/>
<path d="M13 14.375H11.75C11.5035 14.3761 11.2592 14.3283 11.0313 14.2344C10.8033 14.1405 10.5962 14.0025 10.4219 13.8281C10.2476 13.6538 10.1095 13.4467 10.0156 13.2188C9.92178 12.9908 9.87398 12.7465 9.87502 12.5V7.50002C9.87398 7.2535 9.92178 7.00922 10.0156 6.78126C10.1095 6.55331 10.2476 6.3462 10.4219 6.17189C10.5962 5.99757 10.8033 5.8595 11.0313 5.76564C11.2592 5.67178 11.5035 5.62398 11.75 5.62502H13" stroke="#667085" stroke-width="2" stroke-linecap="round" stroke-linejoin="round"/>
</svg>
