<svg width="57" height="50" viewBox="0 0 57 50" fill="none" xmlns="http://www.w3.org/2000/svg">
<path fill-rule="evenodd" clip-rule="evenodd" d="M11.8508 0.16333C12.8765 0.16333 13.7801 0.869672 14.0721 1.89967L20.0391 22.9452C20.3311 23.9752 21.2348 24.6815 22.2604 24.6815H22.6338C23.6982 24.6815 24.6257 25.4412 24.8825 26.5234L27.4651 37.4065C27.7014 38.4022 29.1184 38.4022 29.3547 37.4065L31.9372 26.5234C32.194 25.4412 33.1216 24.6815 34.186 24.6815H34.5594C35.585 24.6815 36.4886 23.9752 36.7807 22.9452L42.7477 1.89967C43.0397 0.869672 43.9433 0.16333 44.9689 0.16333H54.5011C56.0506 0.16333 57.1636 1.72592 56.7223 3.28208L51.1473 22.9452C50.8553 23.9752 49.9517 24.6815 48.926 24.6815H46.2102C45.1458 24.6815 44.2183 25.4412 43.9615 26.5234L39.0175 47.3578C38.7607 48.44 37.8331 49.1997 36.7687 49.1997H30.2636H26.5561H20.0511C18.9866 49.1997 18.0591 48.44 17.8023 47.3578L12.8583 26.5234C12.6015 25.4412 11.674 24.6815 10.6095 24.6815H7.89374C6.86811 24.6815 5.96449 23.9752 5.67246 22.9452L0.0974138 3.28208C-0.343802 1.72592 0.769129 0.16333 2.3187 0.16333H11.8508Z" fill="#25FF79"/>
</svg>
