<svg width="20" height="19" viewBox="0 0 25 24" fill="none" xmlns="http://www.w3.org/2000/svg">
<path d="M3.06699 10.8002C3.73073 9.90924 4.61641 9.20781 5.63574 8.76584C5.07804 8.25562 4.68755 7.58878 4.51547 6.85275C4.34338 6.11672 4.39774 5.34587 4.67142 4.64128C4.9451 3.93669 5.42531 3.33125 6.0491 2.90435C6.67288 2.47745 7.41112 2.24902 8.16699 2.24902C8.92287 2.24902 9.6611 2.47745 10.2849 2.90435C10.9087 3.33125 11.3889 3.93669 11.6626 4.64128C11.9362 5.34587 11.9906 6.11672 11.8185 6.85275C11.6464 7.58878 11.2559 8.25562 10.6982 8.76584C11.4328 9.08526 12.1006 9.54005 12.667 10.1065C13.2333 9.54005 13.9012 9.08526 14.6357 8.76584C14.078 8.25562 13.6875 7.58878 13.5155 6.85275C13.3434 6.11672 13.3977 5.34587 13.6714 4.64128C13.9451 3.93669 14.4253 3.33125 15.0491 2.90435C15.6729 2.47745 16.4111 2.24902 17.167 2.24902C17.9229 2.24902 18.6611 2.47745 19.2849 2.90435C19.9087 3.33125 20.3889 3.93669 20.6626 4.64128C20.9362 5.34587 20.9906 6.11672 20.8185 6.85275C20.6464 7.58878 20.2559 8.25562 19.6982 8.76584C20.7176 9.20781 21.6033 9.90924 22.267 10.8002C22.3261 10.879 22.3691 10.9687 22.3935 11.0641C22.418 11.1595 22.4234 11.2588 22.4095 11.3563C22.3955 11.4538 22.3625 11.5476 22.3123 11.6323C22.2622 11.7171 22.1958 11.7911 22.117 11.8502C21.957 11.9672 21.7576 12.0169 21.5615 11.9889C21.3653 11.9609 21.1878 11.8573 21.067 11.7002C20.6129 11.0948 20.0241 10.6033 19.3472 10.2649C18.6702 9.92642 17.9238 9.75022 17.167 9.75022C16.4102 9.75022 15.6637 9.92642 14.9868 10.2649C14.3099 10.6033 13.7211 11.0948 13.267 11.7002L13.2107 11.7565H13.2014L13.1545 11.8033L13.1264 11.8221C13.1264 11.8246 13.1254 11.827 13.1236 11.8287C13.1219 11.8305 13.1195 11.8315 13.117 11.8315L13.0889 11.8502L13.0607 11.869L13.0139 11.8971H12.9951L12.8357 11.9533H12.5264L12.4514 11.9346H12.4232L12.3389 11.8971L12.3107 11.8783C12.2805 11.8629 12.2522 11.844 12.2264 11.8221H12.217L12.1889 11.794H12.1701C12.1514 11.7752 12.1326 11.7658 12.1232 11.7471H12.1139L12.0576 11.6815C11.6026 11.0783 11.0137 10.5892 10.3373 10.2527C9.66084 9.91618 8.91547 9.74148 8.15997 9.74239C7.40446 9.7433 6.65951 9.91979 5.98391 10.2579C5.3083 10.5961 4.72053 11.0866 4.26699 11.6908C4.19812 11.7857 4.10797 11.8631 4.00377 11.9169C3.89957 11.9706 3.78422 11.9991 3.66699 12.0002C3.50438 12.0023 3.34581 11.9495 3.21699 11.8502C3.1382 11.7911 3.07182 11.7171 3.02164 11.6323C2.97146 11.5476 2.93846 11.4538 2.92453 11.3563C2.9106 11.2588 2.91601 11.1595 2.94046 11.0641C2.9649 10.9687 3.0079 10.879 3.06699 10.8002ZM19.6982 18.5158C20.2559 18.0056 20.6464 17.3388 20.8185 16.6028C20.9906 15.8667 20.9362 15.0959 20.6626 14.3913C20.3889 13.6867 19.9087 13.0812 19.2849 12.6543C18.6611 12.2274 17.9229 11.999 17.167 11.999C16.4111 11.999 15.6729 12.2274 15.0491 12.6543C14.4253 13.0812 13.9451 13.6867 13.6714 14.3913C13.3977 15.0959 13.3434 15.8667 13.5155 16.6028C13.6875 17.3388 14.078 18.0056 14.6357 18.5158C13.9012 18.8353 13.2333 19.29 12.667 19.8565C12.1006 19.29 11.4328 18.8353 10.6982 18.5158C11.2559 18.0056 11.6464 17.3388 11.8185 16.6028C11.9906 15.8667 11.9362 15.0959 11.6626 14.3913C11.3889 13.6867 10.9087 13.0812 10.2849 12.6543C9.6611 12.2274 8.92287 11.999 8.16699 11.999C7.41112 11.999 6.67288 12.2274 6.0491 12.6543C5.42531 13.0812 4.9451 13.6867 4.67142 14.3913C4.39774 15.0959 4.34338 15.8667 4.51547 16.6028C4.68755 17.3388 5.07804 18.0056 5.63574 18.5158C4.61641 18.9578 3.73073 19.6592 3.06699 20.5502C2.98342 20.6616 2.93253 20.7941 2.92002 20.9329C2.90751 21.0716 2.93388 21.211 2.99617 21.3356C3.05846 21.4602 3.15421 21.565 3.27269 21.6382C3.39118 21.7114 3.52771 21.7502 3.66699 21.7502H21.667C21.8063 21.7502 21.9428 21.7114 22.0613 21.6382C22.1798 21.565 22.2755 21.4602 22.3378 21.3356C22.4001 21.211 22.4265 21.0716 22.414 20.9329C22.4015 20.7941 22.3506 20.6616 22.267 20.5502C21.6033 19.6592 20.7176 18.9578 19.6982 18.5158Z" fill="#37B99F"/>
</svg>
